<svg width="288" height="241" viewBox="0 0 288 241" fill="none" xmlns="http://www.w3.org/2000/svg">
<path d="M119.774 240.412C212.352 240.412 287.412 165.364 287.412 72.7871H263.463C263.463 152.145 199.128 216.467 119.77 216.467L119.774 240.412Z" fill="#8C52FF"/>
<path d="M24 72.7935C24 125.699 66.8878 168.578 119.778 168.578C172.683 168.578 215.569 125.7 215.569 72.7935L239.517 72.7935C239.517 138.925 185.903 192.523 119.769 192.523C53.6443 192.523 0.0464783 138.923 0.0464783 72.7935H24Z" fill="#8C52FF"/>
<path d="M119.781 72.7935H191.621C191.621 112.477 159.454 144.633 119.768 144.633C80.0942 144.633 47.9407 112.477 47.9407 72.7935C47.9407 33.1051 80.0974 0.953506 119.768 0.953506L119.781 72.7935Z" fill="#8C52FF"/>
</svg>
