<?xml version="1.0" standalone="no"?>
<svg
  width="600"
  height="600"
  viewBox="0 0 600 600"
  xmlns="http://www.w3.org/2000/svg"
>
  <g transform="translate(300,300)">
    <path d="M114.1,-153.4C158.7,-149,213.1,-135.5,242.9,-101.7C272.7,-67.9,277.9,-13.6,254.7,25.3C231.6,64.2,180,87.8,145.9,125.5C111.8,163.1,95,214.9,62.1,235.6C29.2,256.2,-19.9,245.6,-63.2,227.4C-106.5,209.1,-143.9,183.1,-174.7,150C-205.4,116.9,-229.4,76.7,-240.4,31.7C-251.4,-13.4,-249.4,-63.2,-223.7,-94.9C-197.9,-126.6,-148.4,-140.3,-107.2,-146.3C-66,-152.3,-33,-150.6,0.9,-152.1C34.8,-153.5,69.6,-157.9,114.1,-153.4Z" fill="#8ed1fc" />
  </g>
</svg>
  